# xmcd
#
# Track frame offsets: 
#        150
#        17770
#        35615
#        50985
#        68380
#        71450
#        91921
#        106917
#        125887
#        143507
#        161427
#        173122
#        189842
#        199587
#        215633
#        233028
#
# Disc length: 3419 seconds
#
# Revision: 3
# Processed by: cddbd v1.5.2PL0 Copyright (c) Steve Scherf et al.
# Submitted via: ExactAudioCopy v0.95b4
#
DISCID=d90d5910
DTITLE=C.W. McCall - The Real McCall An American Storyteller
DYEAR=1990
DGENRE=Country
TTITLE0=Comin' Back For More
TTITLE1=Ghost Town
TTITLE2=Glenwood Canyon
TTITLE3=There Won't Be No Country Music
TTITLE4=Roy
TTITLE5=The Little Brown Sparrow
TTITLE6=Wilderness
TTITLE7=Aurora Borealis
TTITLE8=The Silverton
TTITLE9=Wolf Creek Pass
TTITLE10=Night Rider
TTITLE11=Rocky Mountain September
TTITLE12=Black Bear Road
TTITLE13=Camp Bird Mine
TTITLE14=Convoy
TTITLE15=Columbine
EXTD=
EXTT0=
EXTT1=
EXTT2=
EXTT3=
EXTT4=
EXTT5=
EXTT6=
EXTT7=
EXTT8=
EXTT9=
EXTT10=
EXTT11=
EXTT12=
EXTT13=
EXTT14=
EXTT15=
PLAYORDER=
